<?xml version="1.0" encoding="utf-8"?>
<!-- Generator: Adobe Illustrator 27.5.0, SVG Export Plug-In . SVG Version: 6.00 Build 0)  -->
<svg version="1.1" id="Layer_1" xmlns="http://www.w3.org/2000/svg" xmlns:xlink="http://www.w3.org/1999/xlink" x="0px" y="0px"
	 viewBox="0 0 381.5 41.6" style="enable-background:new 0 0 381.5 41.6;" xml:space="preserve">
<style type="text/css">
	.st0{fill:#02002C;}
</style>
<path class="st0" d="M178.9,0.3h-12.3h-3.5h-5.6v0c-1.2,0.1-2.1,1.2-2.1,2.4s0.9,2.3,2.1,2.4v0h3.6c1.1,0,2,0.9,2,2s-0.9,2-2,2
	h-17.6c-1.3,0-2.4,1.1-2.4,2.4s1.1,2.4,2.4,2.4h14.1c1.1,0,2,0.9,2,2s-0.9,2-2,2h-3.2c-1.4,0-2.6,1.2-2.6,2.6s1.1,2.6,2.6,2.6h7.8
	c1.1,0,2,0.9,2,2v0.3c0,1.1-0.9,2-2,2h-13.7c-1.4,0-2.6,1.2-2.6,2.6c0,1.4,1.1,2.6,2.6,2.6h23V21.1h7.5c8.1,0,11.2-5.1,11.2-10.4
	S187,0.3,178.9,0.3L178.9,0.3z M176.9,15.5h-5.5V5.8h5.5c3.3,0,6.2,0.7,6.2,4.8S180.2,15.5,176.9,15.5z M145.6,2.7
	c0-1.3,1.1-2.4,2.4-2.4h3.8c1.3,0,2.4,1.1,2.4,2.4s-1.1,2.4-2.4,2.4H148C146.7,5.1,145.6,4,145.6,2.7z M148.2,23.2h-5.4
	c-1.4,0-2.6-1.2-2.6-2.6s1.1-2.6,2.6-2.6h5.4c1.4,0,2.6,1.2,2.6,2.6S149.6,23.2,148.2,23.2z"/>
<g>
	<path class="st0" d="M212.2,32.7l-2.1-6h-13.3l-2.1,6h-7.5L199,0.4h9l11.7,32.2H212.2L212.2,32.7z M203.5,7l-4.9,14.2h9.8
		C208.4,21.1,203.5,7,203.5,7z"/>
	<path class="st0" d="M226.5,19.9L214.4,0.4h8.4l7.3,12.6l7.3-12.6h8.4l-12.1,19.5v12.8h-7.2L226.5,19.9L226.5,19.9z"/>
	<path class="st0" d="M248.1,20.2c0-11.5,6.4-20.2,17.8-20.2c7.4,0,12.7,4.3,12.7,10.5c0,0.4,0,0.8,0,1.1H275c0-4.8-3.4-8.5-9.3-8.5
		c-9.1,0-13.8,7.7-13.8,16.8c0,6.2,3.4,10,9.6,10c6.1,0,10.3-3.5,11.8-8.7h3.6c-1,6.9-6.5,12-15.6,12
		C252.3,33.2,248.1,27.9,248.1,20.2L248.1,20.2z"/>
	<path class="st0" d="M278.8,32.7l4.1-23.4h3.6l-0.9,5c1.9-3.9,4.3-5.2,7.4-5.2c0.6,0,1.9,0.1,2.5,0.2l-0.5,3.3l-2.6-0.1
		c-3.9,0-6.8,2.7-7.7,8.4l-2,11.8L278.8,32.7L278.8,32.7z"/>
	<path class="st0" d="M294,38.8h2c2.5,0,4.5-1.5,6.4-4.9L297,9.3h3.7l3.9,20.2l11-20.2h4.1L306,33.5c-3.6,6.2-6.2,8.1-10.4,8.1h-2.1
		L294,38.8L294,38.8z"/>
	<path class="st0" d="M323.3,27.7l-2.5,13.9h-3.8l5.7-32.2h3.6l-0.7,4.1c1.6-2.8,4.5-4.6,8.4-4.6c5.8,0,8.9,4,8.9,9.6
		c0,8.2-4.3,14.7-12,14.7C326.8,33.1,324.2,31.2,323.3,27.7L323.3,27.7z M339.1,18.6c0-4.4-2.2-6.9-5.9-6.9c-5.6,0-8.9,5-8.9,11.6
		c0,4.4,2.2,6.9,5.9,6.9C335.8,30.2,339.1,25.2,339.1,18.6z"/>
	<path class="st0" d="M346.9,29c0-0.5,0-1.1,0.2-1.8l2.7-15.2h-4l0.5-2.7h4l1.2-7.1h3.8l-1.3,7.1h5.6l-0.5,2.7h-5.6l-2.7,15.3
		c-0.1,0.4-0.1,0.7-0.1,1c0,1.5,0.9,1.8,2.9,1.8l2.3-0.1l-0.5,2.6c-1,0.1-2,0.2-2.9,0.2C348.8,32.9,346.9,32,346.9,29L346.9,29z"/>
	<path class="st0" d="M358.7,23.5c0-8.6,4.9-14.7,13-14.7c6.1,0,9.7,3.7,9.7,9.6c0,8.6-4.9,14.7-13.1,14.7
		C362.3,33.1,358.7,29.5,358.7,23.5z M377.7,18.6c0-4.4-2.3-6.9-6.2-6.9c-5.8,0-9.1,5-9.1,11.6c0,4.4,2.3,6.9,6.2,6.9
		C374.4,30.2,377.7,25.2,377.7,18.6z"/>
</g>
<g>
	<path class="st0" d="M25.8,36.2l-3.1-4.2c-2,0.8-4.2,1.2-6.8,1.2c-10.1,0-16-6.6-16-16.2S5.9,0.7,16,0.7s16,6.6,16,16.2
		c0,5.3-1.8,9.6-5,12.5l5,6.8H25.8z M19.1,26.9l-5.8-8h6.1l3.7,5.1c1.2-1.7,1.8-4.1,1.8-7.1c0-6.7-3-10.4-8.9-10.4
		s-8.8,3.7-8.8,10.4s3,10.4,8.8,10.4C17.1,27.3,18.1,27.1,19.1,26.9L19.1,26.9z"/>
	<path class="st0" d="M34.9,20.7V1.1H42V20c0,5.5,2,7.3,6.7,7.3s6.7-1.8,6.7-7.3V1.1h7.1v19.6c0,8.2-4.7,12.4-13.8,12.4
		S34.9,28.8,34.9,20.7z"/>
	<path class="st0" d="M66.8,32.7V1.1h7.1v31.5H66.8z"/>
	<path class="st0" d="M77.3,16.9c0-9.6,5.9-16.2,16-16.2c8.7,0,14.9,5.1,14.9,12.2h-6.8c-0.5-3.7-3.1-6.4-8.1-6.4
		c-5.9,0-8.9,3.7-8.9,10.4s3,10.4,8.9,10.4c5,0,7.6-2.6,8.1-6.7h6.8c0,7.2-6,12.5-14.9,12.5C83.2,33.1,77.3,26.5,77.3,16.9
		L77.3,16.9z"/>
	<path class="st0" d="M131.2,32.7l-8.7-13.2l-4,4.3v8.9h-7.1V1.1h7.1v14l12.2-14h8.3l-11.9,13l12.3,18.5L131.2,32.7L131.2,32.7z"/>
</g>
</svg>
